<?xml version="1.0" encoding="utf-8"?>
<!-- Generator: Adobe Illustrator 16.0.0, SVG Export Plug-In . SVG Version: 6.00 Build 0)  -->
<!DOCTYPE svg PUBLIC "-//W3C//DTD SVG 1.1//EN" "http://www.w3.org/Graphics/SVG/1.1/DTD/svg11.dtd">
<svg version="1.1" id="Layer_1" xmlns="http://www.w3.org/2000/svg" xmlns:xlink="http://www.w3.org/1999/xlink" x="0px" y="0px"
	 width="134.5px" height="57.75px" viewBox="0 0 134.5 57.75" enable-background="new 0 0 134.5 57.75" xml:space="preserve">
<g>
	<g>
		<path fill="#FFFFFF" d="M121.578,14.39c0.046-1.138,0.081-2.911,0.116-4.5c0.021-0.953-0.366-1.729-1.342-1.879
			c-0.71-0.11-1.539,0.447-1.556,1.235c-0.005,0.252-0.021,0.501-0.023,0.753c-0.003,0.399-0.425,0.698-0.835,0.65
			c-0.549-0.064-0.706-0.459-0.7-0.739c0.005-0.226-0.007-0.542,0.003-0.73c0.076-1.362,0.466-2.08,1.404-2.624
			c1.284-0.744,3.294-0.507,4.072,0.616c0.484,0.699,0.617,1.51,0.592,2.623c-0.041,1.864-0.064,3.446-0.214,5.161
			c-0.019,0.349-0.347,0.539-0.892,0.481c-0.521-0.055-0.64-0.407-0.647-0.611C121.564,14.692,121.57,14.546,121.578,14.39"/>
		<path fill="#010101" d="M121.649,16.691c0.521,0.137,1.053,0.232,1.591,0.284c0.001-0.159,0.003-0.367,0.003-0.367
			c0.002-0.246,0.05-0.9,0.051-1.087l-0.3-0.293c-0.137,0.17-0.412,0.251-0.791,0.21c-0.338-0.036-0.507-0.196-0.585-0.361
			l-0.292,0.196c-0.022,0.224-0.033,0.746-0.035,0.992l-0.002,0.291c0.013,0.014,0.025,0.026,0.038,0.038
			C121.436,16.629,121.543,16.662,121.649,16.691z"/>
		<path fill="#FFFFFF" d="M123.181,27.099c-0.029,3.413-0.24,9.61-0.475,13.152c-0.132,1.999-0.431,5.864-0.586,7.775
			c-0.021,0.31-0.06,0.618-0.116,0.923c-0.052,0.297-0.321,0.516-0.573,0.464c-0.246-0.05-0.43-0.4-0.432-0.694
			c-0.198-2.26-0.363-7.383-0.405-9.429c-0.025-1.213,0.234-11.012,0.153-12.223l-0.055-1.338c-0.102-0.894-0.762-4.095-0.94-5.065
			c-0.123-0.558-0.472-2.384-0.608-3.014c-0.027-0.108,0.037-0.218,0.144-0.248c0.266-0.06,0.862-0.246,1.154-0.306l0.035-0.007
			c0.093-0.38,0.208-0.753,0.348-1.119c0.158,0.154,0.333,0.458,0.503,0.622c0.974,0.319,1.808,0.359,2.372,0.436
			c0,0,0.061-0.171,0.135-0.377c0.629,0.361,1.567,1.227,1.624,1.375c-0.25,0.868-1.803,5.954-2.272,7.882L123.181,27.099z"/>
		<path fill="#010101" d="M121.074,15.269c-0.033,0.329-0.033,0.662-0.035,0.992c-0.002,0.14,0.109,0.255,0.249,0.257
			c0.14,0.002,0.255-0.109,0.257-0.249c0.003-0.33,0.002-0.664,0.035-0.992c0.001-0.139-0.109-0.254-0.249-0.256
			C121.192,15.021,121.079,15.13,121.074,15.269z"/>
		<path fill="#010101" d="M123.042,15.517c-0.004,0.363-0.048,0.724-0.051,1.087c-0.002,0.14,0.109,0.255,0.249,0.257
			c0.14,0.001,0.254-0.109,0.257-0.25l0,0c0.004-0.363,0.047-0.725,0.051-1.087c0.002-0.139-0.109-0.255-0.249-0.257
			C123.159,15.265,123.043,15.377,123.042,15.517z"/>
		<path fill="#010101" d="M121.965,16.01c0.002,0.089-0.001,0.179-0.009,0.268c-0.006,0.096-0.014,0.191-0.017,0.287
			c0,0.068,0.026,0.134,0.074,0.183c0.099,0.099,0.258,0.1,0.358,0.001l0,0c0.045-0.048,0.072-0.11,0.074-0.176
			c0.003-0.096,0.011-0.191,0.017-0.287c0.008-0.089,0.012-0.178,0.009-0.268c-0.001-0.068-0.027-0.133-0.074-0.182
			c-0.099-0.099-0.259-0.1-0.357-0.001C121.993,15.881,121.966,15.944,121.965,16.01z"/>
		<path fill="#010101" d="M121.985,17.863c0.294,0.125,0.579,0.27,0.853,0.433c0.141,0.08,0.279,0.163,0.416,0.25
			c0.053,0.034,0.105,0.068,0.157,0.104c0.024,0.017,0.048,0.034,0.071,0.051c0.043,0.031-0.036-0.031,0.016,0.013l-0.064-0.247
			c-0.211,0.748-0.451,1.488-0.676,2.231c-0.37,1.222-0.739,2.445-1.095,3.671c-0.133,0.459-0.27,0.919-0.384,1.385
			c-0.079,0.316,0.409,0.454,0.487,0.138c0.244-0.986,0.549-1.958,0.84-2.93c0.346-1.16,0.696-2.318,1.05-3.476
			c0.089-0.293,0.183-0.585,0.266-0.881c0.026-0.087,0.001-0.183-0.064-0.248c-0.239-0.187-0.495-0.353-0.762-0.496
			c-0.313-0.185-0.637-0.346-0.973-0.484c-0.134-0.037-0.273,0.041-0.313,0.175C121.776,17.685,121.853,17.823,121.985,17.863
			L121.985,17.863z"/>
		<path fill="#010101" d="M123.421,16.746c0.041,0.01,0.08,0.022,0.118,0.038c0.049,0.019-0.038-0.02,0.017,0.007
			c0.02,0.01,0.041,0.02,0.061,0.03c0.095,0.05,0.188,0.105,0.276,0.165c0.205,0.137,0.402,0.285,0.59,0.443
			c0.179,0.149,0.354,0.303,0.521,0.466c0.063,0.06,0.124,0.122,0.182,0.187c0.022,0.025,0.058,0.096,0.021,0.021
			c0.009,0.017,0.022,0.031,0.031,0.049l-0.024-0.195c-0.24,0.834-0.496,1.665-0.744,2.498c-0.37,1.243-0.737,2.487-1.088,3.737
			c-0.153,0.547-0.305,1.095-0.44,1.648c-0.077,0.316,0.41,0.455,0.487,0.138c0.383-1.571,0.858-3.123,1.317-4.674
			c0.222-0.748,0.444-1.496,0.668-2.243c0.075-0.247,0.148-0.494,0.221-0.741c0.022-0.075,0.049-0.149,0.066-0.225
			c0.036-0.163-0.076-0.284-0.178-0.395c-0.277-0.292-0.578-0.561-0.898-0.804c-0.311-0.244-0.672-0.547-1.067-0.638
			C123.241,16.186,123.103,16.672,123.421,16.746L123.421,16.746z"/>
		<path fill="#010101" d="M120.541,25.916c-0.199,0.089-0.12,0.771-0.047,0.944c0,0,2.218,0.207,3.066,0.08
			c0.037-0.308,0.046-0.617,0.029-0.926C123.36,25.996,120.773,25.811,120.541,25.916z"/>
		<path fill="#010101" d="M120.415,25.697c-0.214,0.115-0.251,0.393-0.253,0.612c-0.009,0.208,0.021,0.417,0.087,0.615
			c0.033,0.107,0.128,0.184,0.241,0.19c0.409,0.038,0.82,0.066,1.23,0.088c0.629,0.033,1.277,0.074,1.903-0.018
			c0.088-0.021,0.157-0.089,0.18-0.176c0.051-0.328,0.063-0.66,0.039-0.99c-0.001-0.139-0.111-0.251-0.249-0.257
			c-0.875-0.067-1.757-0.133-2.635-0.129C120.774,25.618,120.589,25.641,120.415,25.697c-0.121,0.071-0.162,0.225-0.094,0.346
			c0.073,0.118,0.225,0.159,0.346,0.093c-0.057,0.024-0.053,0.028-0.005,0.011c0.045-0.016-0.03,0.002-0.019,0.002
			c0.015,0,0.03-0.003,0.046-0.004c0.083-0.004,0.167-0.007,0.25-0.007c0.233-0.001,0.466,0.006,0.7,0.016
			c0.501,0.02,1.003,0.05,1.503,0.083c0.147,0.01,0.294,0.02,0.441,0.031l-0.249-0.257c0.006,0.146,0.007,0.292,0.006,0.438
			c-0.001,0.085-0.003,0.169-0.008,0.254c-0.004,0.062-0.012,0.142-0.018,0.169l0.181-0.177c-0.071,0.011,0.006,0-0.04,0.006
			c-0.031,0.003-0.062,0.006-0.093,0.008c-0.068,0.005-0.137,0.01-0.206,0.012c-0.156,0.007-0.313,0.008-0.47,0.007
			c-0.331-0.002-0.661-0.016-0.991-0.033c-0.4-0.022-0.8-0.05-1.198-0.087l0.241,0.189c-0.046-0.125-0.069-0.258-0.069-0.392
			c-0.003-0.075-0.001-0.149,0.005-0.224c0.001-0.004,0.017-0.059,0.022-0.085c-0.008,0.042,0.009-0.006-0.008,0.017
			c-0.007,0.009-0.057,0.041-0.022,0.022C120.953,25.981,120.702,25.542,120.415,25.697z"/>
		<path fill="#010101" d="M120.639,16.146c0.188,0.186,0.306,0.433,0.497,0.615c0.121,0.115,0.34,0.146,0.498,0.188
			c0.162,0.044,0.325,0.082,0.49,0.115c0.52,0.105,1.046,0.149,1.571,0.218c0.139,0.001,0.254-0.109,0.257-0.249
			c0-0.139-0.111-0.252-0.249-0.257c-0.329-0.043-0.659-0.072-0.987-0.121c-0.448-0.064-0.889-0.167-1.32-0.305l0.111,0.065
			c-0.191-0.191-0.317-0.437-0.509-0.626C120.766,15.56,120.406,15.916,120.639,16.146z"/>
		<path fill="#010101" d="M120.944,25.734c-0.063-0.542-0.167-1.079-0.267-1.614c-0.131-0.704-0.269-1.406-0.407-2.107
			c-0.231-1.177-0.464-2.355-0.699-3.531c-0.036-0.179-0.072-0.357-0.108-0.536c-0.015-0.073-0.03-0.146-0.045-0.219
			c-0.007-0.031-0.013-0.063-0.02-0.093c-0.012-0.05-0.018-0.048-0.022,0c-0.003,0.039-0.043,0.002-0.002,0.009
			c0.026-0.003,0.052-0.009,0.077-0.019c0.04-0.01,0.08-0.021,0.119-0.032c0.111-0.029,0.221-0.061,0.331-0.091
			c0.2-0.057,0.401-0.116,0.604-0.158c0.32-0.067,0.192-0.557-0.126-0.49c-0.37,0.078-0.727,0.202-1.093,0.292
			c-0.256,0.063-0.43,0.26-0.391,0.534c0.019,0.133,0.052,0.264,0.079,0.395c0.145,0.712,0.282,1.426,0.426,2.138
			c0.244,1.211,0.482,2.424,0.713,3.638c0.071,0.375,0.141,0.75,0.207,1.126c0.027,0.153,0.052,0.305,0.076,0.458
			c0.009,0.06,0.019,0.12,0.027,0.179c0.004,0.029,0.008,0.059,0.011,0.088c0.002,0.011,0.003,0.022,0.005,0.033
			c0.007,0.049-0.007-0.058-0.001-0.007c0.003,0.138,0.112,0.25,0.25,0.257C120.826,25.985,120.94,25.874,120.944,25.734
			L120.944,25.734z"/>
		<path fill="#010101" d="M120.682,17.345c0.049-0.264,0.117-0.522,0.202-0.777c0.061-0.191,0.124-0.384,0.2-0.57
			c0.038-0.134-0.041-0.274-0.175-0.312c-0.134-0.035-0.271,0.042-0.313,0.174c-0.076,0.186-0.139,0.379-0.2,0.57
			c-0.085,0.254-0.152,0.513-0.202,0.776c-0.034,0.134,0.043,0.272,0.175,0.313C120.504,17.555,120.643,17.478,120.682,17.345z"/>
		<path fill="#010101" d="M120.493,27.064c0.053,0.81,0.014,1.632,0.004,2.443c-0.017,1.38-0.042,2.76-0.069,4.141
			c-0.024,1.308-0.048,2.616-0.072,3.923c-0.014,0.827-0.02,1.651,0.002,2.477c0.044,1.701,0.103,3.401,0.177,5.102
			c0.037,0.831,0.078,1.662,0.13,2.491c0.022,0.335,0.045,0.669,0.073,1.004c0.004,0.229,0.063,0.453,0.174,0.654
			c0.116,0.215,0.333,0.356,0.577,0.375c0.253-0.004,0.489-0.134,0.626-0.347c0.144-0.207,0.161-0.471,0.195-0.713
			c0.059-0.405,0.081-0.816,0.113-1.224c0.07-0.881,0.139-1.762,0.207-2.643c0.133-1.732,0.269-3.465,0.373-5.2
			c0.113-1.881,0.192-3.765,0.26-5.649c0.068-1.889,0.125-3.779,0.156-5.67c0.006-0.375,0.011-0.75,0.014-1.125
			c0.003-0.326-0.502-0.334-0.506-0.008c-0.015,1.747-0.062,3.492-0.117,5.238c-0.062,1.932-0.14,3.863-0.235,5.794
			c-0.084,1.643-0.2,3.282-0.322,4.921c-0.07,0.941-0.142,1.881-0.216,2.822c-0.063,0.809-0.112,1.621-0.193,2.428
			c-0.01,0.221-0.044,0.44-0.101,0.655c-0.023,0.073-0.069,0.136-0.132,0.179c-0.039,0.029-0.087,0.042-0.135,0.035
			c-0.146-0.049-0.212-0.288-0.224-0.425c-0.013-0.151-0.025-0.302-0.036-0.454c-0.057-0.765-0.098-1.53-0.136-2.295
			c-0.084-1.73-0.146-3.461-0.195-5.192c-0.025-0.885-0.044-1.768-0.032-2.653c0.017-1.204,0.042-2.409,0.065-3.613
			c0.026-1.396,0.051-2.791,0.074-4.186c0.015-0.983,0.037-1.968,0.019-2.952c-0.002-0.108-0.004-0.217-0.012-0.325
			c-0.001-0.139-0.11-0.251-0.249-0.257C120.61,26.813,120.497,26.924,120.493,27.064L120.493,27.064z"/>
		<path fill="#010101" d="M121.222,49.449c-0.003,0.25-0.033,0.498-0.036,0.747c0,0.139,0.11,0.253,0.25,0.257
			c0.138,0,0.252-0.11,0.256-0.249c0.003-0.25,0.033-0.498,0.036-0.746c0-0.14-0.11-0.254-0.249-0.257
			C121.34,49.201,121.226,49.311,121.222,49.449z"/>
		<path fill="#010101" d="M122.627,26.998c-0.389,1.032-0.667,2.112-0.953,3.176c-0.343,1.276-0.665,2.559-0.964,3.847
			c-0.111,0.479-0.222,0.96-0.307,1.445c-0.034,0.134,0.042,0.271,0.174,0.313c0.134,0.037,0.273-0.041,0.313-0.174
			c0.18-1.021,0.439-2.03,0.688-3.035c0.322-1.301,0.661-2.6,1.038-3.885c0.152-0.52,0.307-1.041,0.497-1.548
			c0.037-0.135-0.041-0.273-0.174-0.313C122.805,26.789,122.667,26.866,122.627,26.998L122.627,26.998z"/>
		<path fill="#010101" d="M122.687,34.291c-0.6,2.229-1.313,4.425-1.81,6.682c-0.155,0.704-0.289,1.411-0.403,2.124
			c-0.033,0.134,0.043,0.271,0.175,0.312c0.134,0.038,0.273-0.041,0.313-0.175c0.378-2.396,1.044-4.723,1.717-7.049
			c0.169-0.584,0.336-1.168,0.495-1.756C123.259,34.113,122.771,33.975,122.687,34.291z"/>
		<path fill="#010101" d="M122.066,45.003c-0.257,0.527-0.482,1.069-0.674,1.623c-0.238,0.6-0.436,1.214-0.593,1.84
			c-0.072,0.317,0.415,0.456,0.487,0.138c0.154-0.614,0.348-1.217,0.58-1.806c0.181-0.525,0.393-1.039,0.636-1.538
			C122.651,44.971,122.216,44.713,122.066,45.003L122.066,45.003z"/>
		<path fill="#010101" d="M120.375,18.158c0.118,1.329,0.283,2.653,0.422,3.979c0.029,0.281,0.06,0.562,0.083,0.843
			c0.001,0.139,0.111,0.251,0.249,0.257c0.139,0.001,0.253-0.11,0.257-0.249c-0.115-1.353-0.284-2.703-0.427-4.053
			c-0.027-0.256-0.056-0.513-0.079-0.77c-0.001-0.138-0.111-0.251-0.249-0.257C120.492,17.908,120.378,18.019,120.375,18.158z"/>
		<path fill="#010101" d="M121.831,14.394c0.047-1.147,0.068-2.296,0.094-3.444c0.021-0.993,0.182-2.194-0.725-2.869
			c-0.777-0.578-1.943-0.372-2.451,0.46c-0.121,0.202-0.191,0.43-0.204,0.666c-0.01,0.161-0.012,0.324-0.017,0.486
			c0.01,0.132,0.002,0.266-0.022,0.396c-0.117,0.355-0.652,0.399-0.89,0.158c-0.026-0.023-0.047-0.051-0.062-0.082
			c-0.009-0.016-0.018-0.031-0.025-0.048c-0.036-0.075,0.006,0.023-0.008-0.022c-0.011-0.036-0.02-0.072-0.027-0.109
			c0.008,0.047,0-0.002,0-0.015c-0.001-0.031-0.001-0.062-0.001-0.093c0.002-0.246-0.009-0.491,0.005-0.737
			c0.012-0.451,0.105-0.897,0.274-1.316c0.336-0.742,1.087-1.211,1.883-1.375c0.827-0.169,1.817-0.05,2.496,0.487
			c0.822,0.65,0.924,1.827,0.908,2.804c-0.021,1.253-0.047,2.507-0.114,3.759c-0.017,0.312-0.037,0.623-0.06,0.934
			c-0.01,0.142-0.022,0.283-0.034,0.425c-0.002,0.048-0.008,0.096-0.017,0.144c-0.007,0.023-0.018,0.045-0.032,0.065
			c-0.047,0.053-0.111,0.09-0.181,0.103c-0.12,0.028-0.244,0.035-0.366,0.021c-0.103-0.004-0.202-0.035-0.29-0.087
			c-0.06-0.037-0.105-0.092-0.129-0.157c0.021,0.044-0.009-0.028-0.013-0.045c-0.005-0.02-0.009-0.041-0.013-0.062
			c0.001,0.009,0.001,0.055,0.001,0.011C121.809,14.698,121.823,14.545,121.831,14.394c0.013-0.326-0.494-0.333-0.507-0.007
			c-0.01,0.243-0.054,0.494,0.036,0.727c0.089,0.233,0.274,0.416,0.507,0.504c0.46,0.183,1.204,0.117,1.422-0.396
			c0.043-0.122,0.066-0.25,0.069-0.379c0.014-0.165,0.027-0.33,0.039-0.495c0.023-0.326,0.043-0.652,0.06-0.979
			c0.033-0.65,0.054-1.3,0.069-1.951c0.018-0.688,0.053-1.381,0.037-2.069c0.003-0.613-0.113-1.221-0.342-1.79
			c-0.192-0.458-0.511-0.853-0.92-1.135c-0.419-0.271-0.895-0.445-1.39-0.507c-0.999-0.156-2.019,0.102-2.824,0.713
			c-0.782,0.611-1.039,1.549-1.096,2.503c-0.016,0.263-0.011,0.531-0.006,0.795c0.002,0.222,0.078,0.437,0.215,0.61
			c0.326,0.408,0.982,0.479,1.408,0.191c0.23-0.148,0.382-0.391,0.415-0.663c0.033-0.304-0.009-0.618,0.034-0.921
			c0.057-0.402,0.401-0.724,0.766-0.839c0.418-0.127,0.872-0.022,1.193,0.274c0.322,0.309,0.424,0.77,0.427,1.208
			c0.005,0.657-0.026,1.316-0.042,1.971c-0.014,0.62-0.03,1.24-0.048,1.86c-0.008,0.255-0.017,0.51-0.027,0.764
			C121.312,14.711,121.818,14.718,121.831,14.394L121.831,14.394z"/>
	</g>
	<g>
		<path fill="none" d="M66.061,20.772c0.248,0.529,0.594,0.975,1.037,1.337c0.442,0.362,0.999,0.588,1.668,0.679
			c0.454,0.061,0.907,0.052,1.36-0.022c0.454-0.075,0.875-0.249,1.263-0.521c0.389-0.271,0.724-0.657,1.004-1.155
			c0.28-0.498,0.486-1.124,0.616-1.879c0-0.665-0.022-1.291-0.065-1.88c-0.043-0.588-0.135-1.132-0.275-1.63
			c-0.141-0.499-0.351-0.943-0.632-1.336c-0.281-0.392-0.648-0.709-1.101-0.951c-0.497-0.242-1.037-0.363-1.62-0.363
			c-0.583,0-1.134,0.144-1.652,0.43c-0.518,0.288-0.972,0.725-1.36,1.314s-0.637,1.352-0.745,2.287
			c-0.065,0.634-0.06,1.276,0.016,1.925C65.65,19.656,65.812,20.244,66.061,20.772z"/>
		<path fill="none" d="M69.64,37.78c-0.346,0-0.702-0.015-1.069-0.045l0.032,2.174c0.043,0.06,0.124,0.098,0.243,0.113
			c0.118,0.015,0.243,0.022,0.373,0.022c0.129,0,0.253-0.008,0.372-0.022C69.71,40.007,69.802,40,69.867,40h3.466
			c0.021-0.363,0.032-0.74,0.032-1.133c0-0.392,0.011-0.799,0.033-1.223c-0.886,0.091-1.804,0.136-2.753,0.136
			C70.32,37.78,69.985,37.78,69.64,37.78z"/>
		<path d="M12.239,11.306c-0.389,0.529-0.702,1.095-0.939,1.699c-0.238,0.543-0.411,1.163-0.518,1.857
			c-0.108,0.695-0.162,1.435-0.162,2.219c0,0.816,0.054,1.585,0.162,2.31c0.107,0.725,0.28,1.435,0.518,2.129
			c0.194,0.725,0.491,1.366,0.891,1.925c0.399,0.559,0.879,1.095,1.441,1.608c0.324,0.242,0.658,0.446,1.004,0.611
			c0.345,0.167,0.702,0.295,1.069,0.385c0.389,0.122,0.782,0.227,1.182,0.318c0.399,0.09,0.815,0.151,1.247,0.181
			c0.41,0.061,0.815,0.091,1.215,0.091c0.399,0,0.805,0,1.215,0h2.203c1.295,0,2.462-0.166,3.499-0.499
			c1.037-0.332,1.922-0.8,2.656-1.404c0.798-0.634,1.398-1.404,1.798-2.31c0.399-0.906,0.653-1.933,0.761-3.08
			c0.043-0.332,0.07-0.642,0.081-0.928c0.01-0.287,0.016-0.596,0.016-0.929c0.043-0.362,0.048-0.694,0.016-0.997
			c-0.032-0.302-0.07-0.619-0.113-0.951c-0.043-0.332-0.108-0.679-0.194-1.042c-0.087-0.362-0.194-0.694-0.324-0.997
			c-0.108-0.332-0.243-0.671-0.405-1.019c-0.162-0.347-0.34-0.702-0.535-1.064c-0.118-0.226-0.282-0.458-0.492-0.699H12.715
			C12.55,10.913,12.385,11.106,12.239,11.306z"/>
		<path d="M32.744,30.851c-0.238-0.393-0.529-0.679-0.875-0.861c-0.194-0.09-0.373-0.159-0.535-0.204
			c-0.162-0.046-0.351-0.068-0.567-0.068H11.591c-0.108,0-0.206,0-0.292,0c-0.086,0-0.184,0.031-0.292,0.091
			c-0.151,0.061-0.287,0.098-0.405,0.113c-0.119,0.015-0.232,0.083-0.34,0.203c-0.151,0.031-0.281,0.091-0.389,0.181
			c-0.108,0.09-0.194,0.182-0.259,0.272c-0.346,0.483-0.518,1.027-0.518,1.631c0,0.271,0.027,0.543,0.081,0.815
			c0.054,0.271,0.156,0.528,0.308,0.77c0.259,0.665,0.604,1.027,1.037,1.087c0.454,0.211,0.928,0.317,1.425,0.317h6.932v1.314
			c0,0.453,0,0.989,0,1.608c0,0.618,0.021,1.109,0.065,1.472c0,0.12,0,0.278,0,0.476c0,0.196-0.022,0.385-0.065,0.566
			c0,0.151,0.011,0.332,0.033,0.543c0.021,0.21,0.032,0.408,0.032,0.588c0.021,0.182,0.049,0.393,0.081,0.634
			s0.081,0.482,0.146,0.725c0.151,0.422,0.378,0.769,0.681,1.041c0.172,0.091,0.351,0.166,0.534,0.227
			c0.184,0.06,0.394,0.091,0.632,0.091c0.216-0.031,0.416-0.068,0.599-0.113c0.184-0.045,0.361-0.143,0.535-0.294
			c0.367-0.393,0.626-0.846,0.777-1.359c0.108-0.302,0.183-0.589,0.227-0.861c0.043-0.271,0.086-0.574,0.129-0.906
			c0.043-0.152,0.065-0.348,0.065-0.589c0-0.242,0-0.499,0-0.77v-3.896c0-0.211-0.011-0.377-0.033-0.498h6.35
			c0.583,0,1.101-0.106,1.555-0.317c0.237-0.06,0.47-0.159,0.696-0.295c0.227-0.136,0.426-0.324,0.6-0.566
			c0.345-0.271,0.518-0.83,0.518-1.676c0-0.332-0.016-0.612-0.048-0.838C32.955,31.281,32.874,31.062,32.744,30.851z"/>
		<path d="M52.472,11.419v15.898c0.043,0.393,0.102,0.71,0.178,0.951c0.075,0.242,0.178,0.499,0.308,0.77
			c0.129,0.272,0.302,0.499,0.518,0.679c0.281,0.242,0.583,0.362,0.907,0.362c0.389,0,0.756-0.166,1.102-0.498
			c0.215-0.181,0.399-0.468,0.551-0.86c0.129-0.333,0.215-0.672,0.259-1.019c0.043-0.347,0.076-0.687,0.097-1.02v-4.71h0.745
			c0.626,0,1.199-0.046,1.717-0.137c0.519-0.09,0.907-0.438,1.167-1.041c0.129-0.302,0.194-0.672,0.194-1.11
			c0-0.437-0.022-0.822-0.065-1.155c-0.065-0.332-0.184-0.611-0.356-0.837s-0.475-0.4-0.907-0.521
			c-0.087-0.029-0.249-0.06-0.486-0.09c-0.238-0.03-0.492-0.052-0.762-0.067c-0.27-0.016-0.523-0.038-0.761-0.069
			c-0.238-0.029-0.399-0.044-0.486-0.044v-4.892c0.021-0.332,0.027-0.664,0.016-0.996c-0.003-0.102-0.026-0.192-0.035-0.292h-3.871
			C52.482,11.066,52.472,11.302,52.472,11.419z"/>
		<path d="M40.048,11.26c-0.011,0.318-0.027,0.619-0.048,0.907c-0.022,0.287-0.033,0.521-0.033,0.702
			c-0.043,0.664-0.205,1.343-0.486,2.038s-0.55,1.298-0.81,1.812c-0.368,0.665-0.724,1.314-1.069,1.947
			c-0.346,0.635-0.702,1.269-1.069,1.903c-0.238,0.423-0.524,0.876-0.858,1.359c-0.335,0.483-0.632,0.997-0.891,1.541
			c-0.259,0.543-0.449,1.117-0.567,1.721c-0.119,0.604-0.092,1.208,0.081,1.812c0.129,0.513,0.345,0.86,0.647,1.042
			c0.216,0.151,0.448,0.227,0.697,0.227c0.248,0,0.491-0.03,0.729-0.091c0.367-0.12,0.702-0.332,1.004-0.634
			c0.302-0.302,0.572-0.649,0.81-1.042c0.043-0.091,0.178-0.324,0.405-0.703c0.227-0.376,0.491-0.822,0.793-1.336
			c0.302-0.513,0.626-1.056,0.972-1.63c0.345-0.573,0.658-1.102,0.939-1.585c0.28-0.483,0.615-1.026,1.004-1.631
			c0.691,1.268,1.361,2.559,2.008,3.873c0.648,1.314,1.372,2.545,2.17,3.691c0.302,0.424,0.659,0.688,1.069,0.793
			c0.41,0.105,0.788,0.061,1.134-0.136c0.345-0.196,0.621-0.513,0.826-0.951c0.205-0.438,0.254-0.989,0.146-1.654
			c-0.108-0.784-0.324-1.517-0.648-2.196c-0.324-0.68-0.659-1.336-1.004-1.97c-0.346-0.665-0.724-1.473-1.134-2.424
			c-0.411-0.951-0.821-1.834-1.231-2.65c-0.238-0.482-0.464-0.966-0.68-1.449c-0.216-0.482-0.378-0.951-0.486-1.404
			c-0.129-0.573-0.167-1.215-0.113-1.925c0.013-0.175,0.001-0.33,0.002-0.495h-4.281C40.067,10.897,40.055,11.066,40.048,11.26z"/>
		<path d="M56.78,39.434c-0.151-0.227-0.313-0.407-0.486-0.543c-0.173-0.136-0.4-0.264-0.68-0.385H45.021
			c-0.022,0-0.113,0.015-0.275,0.045s-0.589,0.044-1.279,0.044c-0.799,0-1.345-0.022-1.636-0.067
			c-0.292-0.046-0.47-0.083-0.534-0.113c-0.022-0.091-0.038-0.347-0.049-0.77c-0.011-0.422-0.022-0.884-0.032-1.381
			c-0.011-0.499-0.022-0.966-0.033-1.404c-0.011-0.438-0.016-0.717-0.016-0.838c-0.021-0.332-0.043-0.672-0.065-1.019
			c-0.021-0.347-0.076-0.679-0.162-0.997c-0.086-0.317-0.21-0.595-0.373-0.837c-0.162-0.241-0.384-0.423-0.664-0.543
			c-0.108-0.06-0.303-0.098-0.583-0.114c-0.281-0.015-0.476-0.022-0.583-0.022c-0.497,0-0.902,0.196-1.214,0.588
			c-0.313,0.394-0.492,0.907-0.535,1.541c-0.043,0.695-0.043,1.375,0,2.038v6.523c0,0.694,0.27,1.305,0.81,1.834
			c0.54,0.528,1.252,0.792,2.138,0.792h15.387c0.021,0,0.183-0.046,0.486-0.135c0.302-0.091,0.583-0.348,0.842-0.771
			c0.389-0.634,0.529-1.525,0.421-2.672C57.028,39.924,56.931,39.66,56.78,39.434z"/>
		<path d="M81.432,11.509v3.896c-0.087,0-0.249,0.007-0.486,0.022c-0.238,0.016-0.492,0.039-0.761,0.068
			c-0.271,0.031-0.524,0.053-0.761,0.068c-0.238,0.016-0.4,0.038-0.486,0.068c-0.432,0.151-0.734,0.339-0.907,0.566
			c-0.173,0.227-0.292,0.506-0.356,0.837c-0.043,0.333-0.065,0.725-0.065,1.178s0.065,0.831,0.194,1.133
			c0.281,0.604,0.669,0.928,1.167,0.974c0.497,0.045,1.058,0.098,1.685,0.158h0.777v4.575c0.021,0.333,0.054,0.664,0.097,0.996
			c0.043,0.333,0.129,0.665,0.259,0.997c0.107,0.362,0.292,0.664,0.55,0.906c0.345,0.333,0.702,0.499,1.069,0.499
			c0.302,0,0.604-0.121,0.907-0.362c0.216-0.182,0.389-0.408,0.519-0.68c0.129-0.271,0.227-0.536,0.292-0.793
			c0.065-0.257,0.108-0.476,0.129-0.657c0.021-0.182,0.033-0.287,0.033-0.317h0.032V10.875c0-0.034-0.001-0.089-0.004-0.155h-3.896
			C81.416,10.984,81.414,11.247,81.432,11.509z"/>
		<path d="M87.198,40.408c-0.259-0.575-0.53-1.118-0.81-1.63c-0.367-0.695-0.729-1.336-1.085-1.925
			c-0.356-0.589-0.697-1.261-1.021-2.016c-0.151-0.392-0.297-0.739-0.438-1.042c-0.141-0.302-0.265-0.664-0.373-1.086
			c-0.108-0.483-0.141-0.891-0.097-1.224c0.043-0.332,0-0.725-0.129-1.178c-0.108-0.392-0.356-0.649-0.745-0.77
			c-0.389-0.12-0.724-0.182-1.004-0.182c-0.389,0-0.696,0.076-0.923,0.227c-0.227,0.151-0.395,0.362-0.502,0.634
			s-0.173,0.588-0.194,0.951c-0.021,0.362-0.043,0.755-0.064,1.178c-0.044,0.543-0.216,1.057-0.519,1.54
			c-0.303,0.484-0.572,0.937-0.81,1.358c-0.303,0.514-0.611,1.027-0.923,1.541c-0.313,0.514-0.621,1.027-0.923,1.54l-0.097,0.136
			c0.021-0.694,0.032-1.366,0.032-2.015s0-1.336,0-2.061c0-0.573-0.005-1.065-0.016-1.472c-0.011-0.408-0.038-0.792-0.081-1.154
			c-0.043-0.393-0.097-0.703-0.162-0.929c-0.065-0.227-0.238-0.46-0.519-0.703c-0.151-0.12-0.34-0.203-0.567-0.249
			c-0.227-0.045-0.454-0.038-0.68,0.023s-0.438,0.189-0.632,0.384c-0.194,0.198-0.324,0.476-0.389,0.838
			c-0.086,0.453-0.129,0.951-0.129,1.495s-0.011,0.982-0.033,1.314l-4.762,0.136c0-0.392,0.005-0.732,0.016-1.02
			c0.011-0.287,0.005-0.55-0.016-0.793c-0.022-0.241-0.065-0.482-0.129-0.724c-0.065-0.242-0.173-0.543-0.324-0.906
			c-0.151-0.332-0.346-0.566-0.583-0.702c-0.238-0.136-0.486-0.182-0.745-0.136c-0.259,0.045-0.502,0.174-0.729,0.385
			c-0.227,0.211-0.405,0.483-0.534,0.815c-0.108,0.301-0.184,0.551-0.227,0.747c-0.043,0.197-0.076,0.393-0.097,0.589
			s-0.027,0.407-0.016,0.634c0.011,0.226,0.005,0.506-0.016,0.838c-0.022,0.543-0.032,1.163-0.032,1.857
			c0,0.695,0.005,1.405,0.016,2.129c0.011,0.725,0.021,1.427,0.032,2.106c0.011,0.679,0.016,1.291,0.016,1.834
			c0,0.755,0.103,1.344,0.308,1.767c0.205,0.423,0.475,0.725,0.81,0.906c0.334,0.182,0.723,0.287,1.167,0.317
			c0.442,0.03,0.901,0.045,1.376,0.045c0.799-0.031,1.592-0.039,2.381-0.022c0.788,0.015,1.549,0.022,2.284,0.022
			c0.54,0,1.037-0.136,1.49-0.407c0.043,0.029,0.081,0.06,0.113,0.09c0.033,0.03,0.07,0.06,0.114,0.09
			c0.324,0.211,0.723,0.241,1.198,0.091c0.302-0.091,0.604-0.257,0.907-0.499c0.302-0.242,0.551-0.528,0.745-0.86
			c0.064-0.122,0.275-0.46,0.631-1.019c0.356-0.559,0.729-1.148,1.118-1.767c0.389-0.619,0.896-1.412,1.522-2.378
			c0.604,1.026,1.145,2.045,1.62,3.057c0.475,1.011,1.058,1.971,1.749,2.876c0.259,0.362,0.578,0.573,0.956,0.634
			c0.377,0.06,0.729,0,1.053-0.181c0.324-0.181,0.588-0.468,0.794-0.86c0.205-0.393,0.264-0.861,0.178-1.404
			C87.64,41.585,87.457,40.981,87.198,40.408z M73.365,38.867c0,0.393-0.011,0.77-0.032,1.133h-3.466
			c-0.064,0-0.157,0.007-0.275,0.022c-0.119,0.015-0.243,0.022-0.372,0.022c-0.13,0-0.254-0.008-0.373-0.022
			c-0.119-0.016-0.2-0.053-0.243-0.113l-0.032-2.174c0.367,0.03,0.723,0.045,1.069,0.045c0.345,0,0.68,0,1.004,0
			c0.95,0,1.868-0.045,2.753-0.136C73.376,38.068,73.365,38.475,73.365,38.867z"/>
		<path d="M62.222,13.208c-0.41,1.404-0.615,2.907-0.615,4.506c0,1.601,0.189,3.157,0.567,4.666c0.377,1.51,1.074,2.733,2.089,3.668
			c0.519,0.483,1.004,0.838,1.458,1.064c0.453,0.227,0.896,0.385,1.328,0.476c0.432,0.09,0.891,0.129,1.376,0.113
			s1.021-0.023,1.604-0.023c2.246,0,3.914-0.74,5.005-2.22c1.09-1.479,1.701-3.729,1.83-6.749c0.13-2.355-0.081-4.378-0.631-6.069
			c-0.231-0.71-0.543-1.34-0.905-1.922H63.373C62.882,11.465,62.49,12.289,62.222,13.208z M65.559,17.081
			c0.108-0.936,0.356-1.698,0.745-2.287s0.842-1.026,1.36-1.314c0.519-0.287,1.069-0.43,1.652-0.43c0.583,0,1.123,0.121,1.62,0.363
			c0.453,0.242,0.82,0.559,1.101,0.951c0.281,0.393,0.491,0.837,0.632,1.336c0.14,0.499,0.232,1.042,0.275,1.63
			c0.043,0.589,0.065,1.216,0.065,1.88c-0.13,0.755-0.335,1.381-0.616,1.879c-0.281,0.499-0.615,0.884-1.004,1.155
			c-0.389,0.272-0.81,0.446-1.263,0.521c-0.454,0.075-0.907,0.083-1.36,0.022c-0.67-0.091-1.226-0.317-1.668-0.679
			c-0.443-0.362-0.789-0.808-1.037-1.337c-0.249-0.528-0.411-1.116-0.486-1.767C65.499,18.356,65.494,17.714,65.559,17.081z"/>
		<path d="M111.671,22.403c0.529,0.016,0.945-0.022,1.247-0.113c0.281-0.09,0.572-0.287,0.875-0.589
			c0.151-0.15,0.253-0.332,0.308-0.543c0.054-0.211,0.102-0.438,0.146-0.68c0.043-0.241,0.07-0.475,0.081-0.702
			s0.017-0.46,0.017-0.702c0-0.453-0.076-0.845-0.227-1.178c-0.108-0.333-0.281-0.581-0.518-0.748
			c-0.238-0.166-0.476-0.278-0.713-0.34c-0.129-0.029-0.313-0.06-0.551-0.09c-0.238-0.03-0.41-0.06-0.518-0.09
			c-0.043,0-0.216-0.007-0.519-0.023c-0.303-0.015-0.648-0.022-1.037-0.022v-1.585c-0.021-0.543-0.032-1.178-0.032-1.903
			c0-0.724-0.043-1.343-0.129-1.856c-0.016-0.18-0.039-0.343-0.057-0.518h-3.959c-0.02,0.213-0.033,0.414-0.033,0.585
			c0,0.257,0,0.401,0,0.43v26.905c0,0.483,0.021,1.034,0.064,1.653c0.043,0.618,0.146,1.215,0.308,1.789
			c0.162,0.573,0.399,1.056,0.712,1.45c0.313,0.392,0.729,0.604,1.247,0.633l0.065,0.046c0.432,0,0.777-0.212,1.037-0.634
			c0.194-0.271,0.34-0.612,0.438-1.02c0.097-0.407,0.172-0.838,0.227-1.291c0.054-0.453,0.081-0.914,0.081-1.381
			c0-0.469,0-0.899,0-1.292v-1.358c0-0.423,0.005-0.89,0.016-1.404c0.011-0.513,0.016-1.056,0.016-1.63
			c0.41,0.031,0.88,0.053,1.409,0.068c0.529,0.015,0.945-0.023,1.247-0.113c0.281-0.091,0.572-0.287,0.875-0.589
			c0.151-0.151,0.253-0.362,0.308-0.634c0.054-0.271,0.102-0.528,0.146-0.77c0.043-0.241,0.07-0.445,0.081-0.611
			c0.011-0.166,0.017-0.37,0.017-0.612c0-0.453-0.076-0.845-0.227-1.178c-0.108-0.332-0.281-0.582-0.518-0.747
			c-0.238-0.166-0.476-0.279-0.713-0.34c-0.129-0.029-0.313-0.06-0.551-0.09c-0.238-0.03-0.41-0.061-0.518-0.091
			c-0.043,0-0.216-0.007-0.519-0.023c-0.303-0.015-0.648-0.022-1.037-0.022v-6.116C110.672,22.366,111.142,22.388,111.671,22.403z"
			/>
		<path d="M89.692,12.144c-0.022,0.514-0.033,1.095-0.033,1.744c0,0.65,0,1.285,0,1.903c0,0.619,0.005,1.147,0.016,1.585
			c0.011,0.438,0.017,0.671,0.017,0.702c0.021,0.544,0.027,1.087,0.016,1.63c-0.011,0.543-0.016,1.072-0.016,1.585V32.39
			c0,0.997-0.011,2.009-0.033,3.035c-0.021,1.027,0.033,2.024,0.162,2.99c0.065,0.423,0.156,0.83,0.275,1.223
			c0.119,0.392,0.296,0.755,0.535,1.087c0.237,0.333,0.529,0.566,0.875,0.702c0.345,0.136,0.68,0.219,1.004,0.25
			c0.432,0.029,0.848,0.075,1.248,0.136c0.399,0.06,0.815,0.09,1.247,0.09h2.98c0.086,0,0.248,0,0.486,0
			c0.237,0,0.496,0.007,0.777,0.023c0.28,0.014,0.54,0.022,0.777,0.022c0.237,0,0.41,0,0.518,0c0.302,0,0.6-0.031,0.891-0.091
			c0.292-0.061,0.588-0.121,0.891-0.181c0.497-0.152,0.896-0.453,1.199-0.906c0.302-0.483,0.475-1.087,0.519-1.812
			c0-0.151,0-0.294,0-0.43c0-0.136-0.011-0.279-0.033-0.43c-0.021-0.272-0.07-0.536-0.146-0.792c-0.076-0.256-0.2-0.46-0.373-0.612
			c-0.324-0.302-0.686-0.505-1.085-0.612c-0.4-0.105-0.783-0.188-1.15-0.249c-0.259-0.029-0.583-0.06-0.972-0.09
			c-0.389-0.03-0.783-0.046-1.183-0.046c-0.4,0-0.793,0-1.182,0s-0.724,0-1.004,0c-0.238,0-0.486-0.007-0.745-0.022
			s-0.508-0.023-0.745-0.023c-0.173,0-0.351-0.007-0.534-0.022c-0.184-0.015-0.34-0.098-0.47-0.249
			c-0.108-0.151-0.173-0.332-0.194-0.543c-0.022-0.211-0.033-0.423-0.033-0.634c-0.021-0.422-0.021-0.838,0-1.246
			c0.021-0.407,0.033-0.823,0.033-1.246v-16.94c-0.022-0.332-0.033-0.663-0.033-0.997c0-0.332,0-0.664,0-0.997
			c0-0.513-0.027-1.003-0.081-1.472c-0.023-0.2-0.057-0.394-0.093-0.585h-4.133C89.782,11.207,89.708,11.684,89.692,12.144z"/>
	</g>
</g>
</svg>
